ffmpeg started on 2022-05-10 at 02:36:43
Report written to "ffmpeg-20220510-023643.log"
ffmpeg version 4.2.6 Copyright (c) 2000-2022 the FFmpeg developers
  built with gcc 8 (GCC)
  configuration: --prefix=/usr --bindir=/usr/bin --datadir=/usr/share/ffmpeg --docdir=/usr/share/doc/ffmpeg --incdir=/usr/include/ffmpeg --libdir=/usr/lib64 --mandir=/usr/share/man --arch=x86_64 --optflags='-O2 -g -pipe -Wall -Werror=format-security -Wp,-D_FORTIFY_SOURCE=2 -Wp,-D_GLIBCXX_ASSERTIONS -fexceptions -fstack-protector-strong -grecord-gcc-switches -specs=/usr/lib/rpm/redhat/redhat-hardened-cc1 -specs=/usr/lib/rpm/redhat/redhat-annobin-cc1 -m64 -mtune=generic -fasynchronous-unwind-tables -fstack-clash-protection -fcf-protection' --extra-ldflags='-Wl,-z,relro -Wl,-z,now -specs=/usr/lib/rpm/redhat/redhat-hardened-ld ' --extra-cflags=' ' --enable-libopencore-amrnb --enable-libopencore-amrwb --enable-libvo-amrwbenc --enable-version3 --enable-bzlib --disable-crystalhd --enable-fontconfig --enable-frei0r --enable-gcrypt --enable-gnutls --enable-ladspa --enable-libaom --enable-libdav1d --enable-libass --enable-libbluray --enable-libcdio --enable-libdrm --enable-libjack --enable-libfreetype --enable-libfribidi --enable-libgsm --enable-libmp3lame --enable-nvenc --enable-openal --enable-opencl --enable-opengl --enable-libopenjpeg --enable-libopus --enable-libpulse --enable-librsvg --enable-libsrt --enable-libsoxr --enable-libspeex --enable-libssh --enable-libtheora --enable-libvorbis --enable-libv4l2 --enable-libvidstab --enable-libvmaf --enable-version3 --enable-vapoursynth --enable-libvpx --enable-libx264 --enable-libx265 --enable-libxvid --enable-libzimg --enable-libzvbi --enable-avfilter --enable-avresample --enable-libmodplug --enable-postproc --enable-pthreads --disable-static --enable-shared --enable-gpl --disable-debug --disable-stripping --shlibdir=/usr/lib64 --enable-libmfx --enable-runtime-cpudetect
  libavutil      56. 31.100 / 56. 31.100
  libavcodec     58. 54.100 / 58. 54.100
  libavformat    58. 29.100 / 58. 29.100
  libavdevice    58.  8.100 / 58.  8.100
  libavfilter     7. 57.100 /  7. 57.100
  libavresample   4.  0.  0 /  4.  0.  0
  libswscale      5.  5.100 /  5.  5.100
  libswresample   3.  5.100 /  3.  5.100
  libpostproc    55.  5.100 / 55.  5.100
Input #0, matroska,webm, from 'uhd1.webm':
  Metadata:
    encoder         : google/video-file
  Duration: 00:05:13.78, start: 0.000000, bitrate: 25462 kb/s
    Stream #0:0(eng): Video: vp9 (Profile 0), yuv420p(tv, bt709), 3840x2160, SAR 1:1 DAR 16:9, 59.94 fps, 59.94 tbr, 1k tbn, 1k tbc (default)
    Side data:
      Content Light Level Metadata, MaxCLL=1100, MaxFALL=180
Stream mapping:
  Stream #0:0 -> #0:0 (vp9 (native) -> h264 (libx264))
Press [q] to stop, [?] for help
[libx264 @ 0x5648301ec2c0] Application has requested 32 threads. Using a thread count greater than 16 is not recommended.
[libx264 @ 0x5648301ec2c0] using SAR=1/1
[libx264 @ 0x5648301ec2c0] using cpu capabilities: MMX2 SSE2Fast SSSE3 SSE4.2 AVX FMA3 BMI2 AVX2 AVX512
[libx264 @ 0x5648301ec2c0] profile Constrained Baseline, level 5.2, 4:2:0, 8-bit
[libx264 @ 0x5648301ec2c0] 264 - core 157 r2980 34c06d1 - H.264/MPEG-4 AVC codec - Copyleft 2003-2019 - http://www.videolan.org/x264.html - options: cabac=0 ref=1 deblock=0:0:0 analyse=0:0 me=dia subme=0 psy=0 mixed_ref=0 me_range=16 chroma_me=1 trellis=0 8x8dct=0 cqm=0 deadzone=21,11 fast_pskip=1 chroma_qp_offset=0 threads=32 lookahead_threads=5 sliced_threads=0 nr=0 decimate=1 interlaced=0 bluray_compat=0 constrained_intra=0 bframes=0 weightp=0 keyint=120 keyint_min=12 scenecut=0 intra_refresh=0 rc_lookahead=0 rc=abr mbtree=0 bitrate=100000 ratetol=1.0 qcomp=0.60 qpmin=0 qpmax=69 qpstep=4 vbv_maxrate=200000 vbv_bufsize=200000 nal_hrd=none filler=0 ip_ratio=1.40 aq=0
Output #0, mp4, to 'uhd6.mp4':
  Metadata:
    encoder         : Lavf58.29.100
    Stream #0:0(eng): Video: h264 (libx264) (avc1 / 0x31637661), yuv420p, 3840x2160 [SAR 1:1 DAR 16:9], q=-1--1, 100000 kb/s, 59.94 fps, 19001 tbn, 59.94 tbc (default)
    Metadata:
      encoder         : Lavc58.54.100 libx264
    Side data:
      cpb: bitrate max/min/avg: 200000000/0/100000000 buffer size: 200000000 vbv_delay: -1
      Content Light Level Metadata, MaxCLL=1100, MaxFALL=180
frame=   25 fps=0.0 q=0.0 size=       0kB time=00:00:00.00 bitrate=N/A speed=   0x    frame=   61 fps= 59 q=16.0 size=    5632kB time=00:00:00.45 bitrate=102413.8kbits/s speed=0.439x    frame=   99 fps= 65 q=16.0 size=   13312kB time=00:00:01.08 bitrate=100558.2kbits/s speed=0.711x    frame=  141 fps= 69 q=17.0 size=   22016kB time=00:00:01.78 bitrate=101029.9kbits/s speed=0.878x    frame=  181 fps= 71 q=18.0 size=   31488kB time=00:00:02.45 bitrate=105178.3kbits/s speed=0.962x    frame=  222 fps= 73 q=18.0 size=   40704kB time=00:00:03.13 bitrate=106311.3kbits/s speed=1.03x    frame=  256 fps= 72 q=19.0 size=   47872kB time=00:00:03.70 bitrate=105883.9kbits/s speed=1.04x    frame=  292 fps= 72 q=18.0 size=   55552kB time=00:00:04.30 bitrate=105726.1kbits/s speed=1.05x    frame=  337 fps= 73 q=18.0 size=   64512kB time=00:00:05.05 bitrate=104544.4kbits/s speed= 1.1x    frame=  374 fps= 73 q=18.0 size=   71680kB time=00:00:05.67 bitrate=103519.6kbits/s speed=1.11x    frame=  411 fps= 73 q=17.0 size=   79104kB time=00:00:06.28 bitrate=103029.3kbits/s speed=1.12x    frame=  456 fps= 74 q=15.0 size=   86528kB time=00:00:07.04 bitrate=100681.2kbits/s speed=1.15x    frame=  501 fps= 76 q=14.0 size=   90624kB time=00:00:07.79 bitrate=95286.4kbits/s speed=1.17x    frame=  550 fps= 77 q=13.0 size=   96768kB time=00:00:08.60 bitrate=92084.5kbits/s speed=1.21x    frame=  602 fps= 79 q=12.0 size=  104192kB time=00:00:09.47 bitrate=90072.2kbits/s speed=1.24x    frame=  636 fps= 78 q=11.0 size=  110080kB time=00:00:10.04 bitrate=89787.7kbits/s speed=1.23x    frame=  677 fps= 78 q=12.0 size=  117248kB time=00:00:10.72 bitrate=89536.4kbits/s speed=1.24x    frame=  726 fps= 79 q=13.0 size=  126464kB time=00:00:11.54 bitrate=89735.9kbits/s speed=1.26x    frame=  761 fps= 79 q=17.0 size=  133376kB time=00:00:12.12 bitrate=90084.2kbits/s speed=1.25x    frame=  797 fps= 78 q=19.0 size=  145152kB time=00:00:12.72 bitrate=93412.3kbits/s speed=1.25x    frame=  835 fps= 78 q=17.0 size=  157440kB time=00:00:13.36 bitrate=96513.5kbits/s speed=1.25x    frame=  863 fps= 77 q=17.0 size=  165376kB time=00:00:13.83 bitrate=97954.3kbits/s speed=1.23x    frame=  901 fps= 77 q=18.0 size=  175104kB time=00:00:14.46 bitrate=99170.5kbits/s speed=1.23x    frame=  942 fps= 77 q=18.0 size=  185856kB time=00:00:15.14 bitrate=100507.0kbits/s speed=1.24x    frame=  975 fps= 77 q=18.0 size=  194304kB time=00:00:15.69 bitrate=101390.7kbits/s speed=1.23x    frame= 1006 fps= 76 q=19.0 size=  202752kB time=00:00:16.21 bitrate=102424.7kbits/s speed=1.22x    frame= 1043 fps= 76 q=19.0 size=  212224kB time=00:00:16.83 bitrate=103278.3kbits/s speed=1.22x    frame= 1084 fps= 76 q=20.0 size=  221952kB time=00:00:17.51 bitrate=103794.8kbits/s speed=1.23x    frame= 1124 fps= 76 q=18.0 size=  229376kB time=00:00:18.18 bitrate=103330.2kbits/s speed=1.23x    frame= 1160 fps= 76 q=20.0 size=  236800kB time=00:00:18.78 bitrate=103264.1kbits/s speed=1.23x    frame= 1198 fps= 76 q=20.0 size=  247808kB time=00:00:19.41 bitrate=104536.6kbits/s speed=1.23x    frame= 1230 fps= 75 q=21.0 size=  258048kB time=00:00:19.95 bitrate=105943.8kbits/s speed=1.22x    frame= 1269 fps= 76 q=21.0 size=  270336kB time=00:00:20.60 bitrate=107483.8kbits/s speed=1.23x    frame= 1305 fps= 75 q=21.0 size=  280832kB time=00:00:21.20 bitrate=108494.4kbits/s speed=1.23x    frame= 1335 fps= 75 q=21.0 size=  289280kB time=00:00:21.70 bitrate=109181.1kbits/s speed=1.22x    frame= 1371 fps= 75 q=22.0 size=  299264kB time=00:00:22.30 bitrate=109908.0kbits/s speed=1.22x    frame= 1410 fps= 75 q=22.0 size=  309504kB time=00:00:22.95 bitrate=110447.0kbits/s speed=1.22x    frame= 1446 fps= 75 q=23.0 size=  319488kB time=00:00:23.55 bitrate=111103.1kbits/s speed=1.22x    frame= 1478 fps= 74 q=23.0 size=  328448kB time=00:00:24.09 bitrate=111687.8kbits/s speed=1.21x    frame= 1522 fps= 75 q=23.0 size=  339456kB time=00:00:24.82 bitrate=112017.7kbits/s speed=1.22x    frame= 1556 fps= 75 q=23.0 size=  348160kB time=00:00:25.39 bitrate=112323.5kbits/s speed=1.22x    frame= 1582 fps= 74 q=23.0 size=  354816kB time=00:00:25.82 bitrate=112548.2kbits/s speed=1.21x    frame= 1623 fps= 74 q=23.0 size=  364800kB time=00:00:26.50 bitrate=112729.4kbits/s speed=1.21x    frame= 1660 fps= 74 q=19.0 size=  372736kB time=00:00:27.12 bitrate=112560.8kbits/s speed=1.21x    frame= 1698 fps= 74 q=19.0 size=  377600kB time=00:00:27.76 bitrate=111425.6kbits/s speed=1.21x    frame= 1747 fps= 75 q=19.0 size=  382208kB time=00:00:28.57 bitrate=109559.2kbits/s speed=1.22x    frame= 1794 fps= 75 q=17.0 size=  385792kB time=00:00:29.36 bitrate=107633.4kbits/s speed=1.23x    frame= 1832 fps= 75 q=18.0 size=  388864kB time=00:00:29.99 bitrate=106197.5kbits/s speed=1.23x    frame= 1873 fps= 75 q=17.0 size=  393728kB time=00:00:30.68 bitrate=105128.6kbits/s speed=1.23x    frame= 1915 fps= 75 q=17.0 size=  397568kB time=00:00:31.38 bitrate=103783.7kbits/s speed=1.24x    frame= 1957 fps= 75 q=17.0 size=  402944kB time=00:00:32.08 bitrate=102889.7kbits/s speed=1.24x    frame= 2001 fps= 76 q=17.0 size=  407808kB time=00:00:32.81 bitrate=101802.4kbits/s speed=1.24x    frame= 2043 fps= 76 q=14.0 size=  412416kB time=00:00:33.51 bitrate=100800.4kbits/s speed=1.24x    frame= 2076 fps= 76 q=18.0 size=  417792kB time=00:00:34.06 bitrate=100464.1kbits/s speed=1.24x    frame= 2119 fps= 76 q=18.0 size=  425216kB time=00:00:34.78 bitrate=100140.6kbits/s speed=1.24x    frame= 2153 fps= 76 q=18.0 size=  430848kB time=00:00:35.35 bitrate=99838.9kbits/s speed=1.24x    frame= 2182 fps= 75 q=18.0 size=  435968kB time=00:00:35.83 bitrate=99661.4kbits/s speed=1.24x    frame= 2226 fps= 75 q=18.0 size=  444160kB time=00:00:36.56 bitrate=99496.0kbits/s speed=1.24x    frame= 2260 fps= 75 q=18.0 size=  450048kB time=00:00:37.13 bitrate=99275.1kbits/s speed=1.24x    frame= 2292 fps= 75 q=18.0 size=  455936kB time=00:00:37.67 bitrate=99148.6kbits/s speed=1.23x    frame= 2326 fps= 75 q=18.0 size=  463360kB time=00:00:38.23 bitrate=99268.3kbits/s speed=1.23x    frame= 2364 fps= 75 q=18.0 size=  470016kB time=00:00:38.87 bitrate=99052.0kbits/s speed=1.23x    frame= 2398 fps= 75 q=18.0 size=  475904kB time=00:00:39.43 bitrate=98850.4kbits/s speed=1.23x    frame= 2433 fps= 75 q=19.0 size=  482816kB time=00:00:40.02 bitrate=98823.0kbits/s speed=1.23x    frame= 2474 fps= 75 q=19.0 size=  493312kB time=00:00:40.70 bitrate=99274.7kbits/s speed=1.23x    frame= 2505 fps= 75 q=19.0 size=  502272kB time=00:00:41.22 bitrate=99809.7kbits/s speed=1.23x    frame= 2538 fps= 74 q=19.0 size=  510464kB time=00:00:41.77 bitrate=100100.8kbits/s speed=1.23x    frame= 2579 fps= 75 q=15.0 size=  519936kB time=00:00:42.45 bitrate=100315.7kbits/s speed=1.23x    frame= 2625 fps= 75 q=15.0 size=  521984kB time=00:00:43.22 bitrate=98922.8kbits/s speed=1.23x    frame= 2663 fps= 75 q=14.0 size=  524032kB time=00:00:43.86 bitrate=97875.5kbits/s speed=1.23x    frame= 2707 fps= 75 q=14.0 size=  526848kB time=00:00:44.59 bitrate=96781.7kbits/s speed=1.23x    frame= 2747 fps= 75 q=15.0 size=  529408kB time=00:00:45.26 bitrate=95818.1kbits/s speed=1.24x    frame= 2789 fps= 75 q=15.0 size=  537088kB time=00:00:45.96 bitrate=95726.1kbits/s speed=1.24x    frame= 2834 fps= 75 q=15.0 size=  547328kB time=00:00:46.71 bitrate=95983.4kbits/s speed=1.24x    frame= 2877 fps= 75 q=15.0 size=  556544kB time=00:00:47.43 bitrate=96123.4kbits/s speed=1.24x    frame= 2911 fps= 75 q=16.0 size=  563968kB time=00:00:47.99 bitrate=96254.6kbits/s speed=1.24x    frame= 2949 fps= 75 q=16.0 size=  572672kB time=00:00:48.63 bitrate=96466.0kbits/s speed=1.24x    frame= 2995 fps= 75 q=16.0 size=  582912kB time=00:00:49.39 bitrate=96665.5kbits/s speed=1.25x    frame= 3029 fps= 75 q=15.0 size=  590080kB time=00:00:49.96 bitrate=96743.3kbits/s speed=1.24x    frame= 3075 fps= 76 q=16.0 size=  600064kB time=00:00:50.73 bitrate=96892.0kbits/s speed=1.25x    frame= 3120 fps= 76 q=16.0 size=  609280kB time=00:00:51.48 bitrate=96945.5kbits/s speed=1.25x    frame= 3149 fps= 75 q=15.0 size=  614912kB time=00:00:51.96 bitrate=96930.8kbits/s speed=1.25x    frame= 3192 fps= 76 q=15.0 size=  623616kB time=00:00:52.68 bitrate=96964.3kbits/s speed=1.25x    frame= 3236 fps= 76 q=15.0 size=  631296kB time=00:00:53.42 bitrate=96809.6kbits/s speed=1.25x    frame= 3272 fps= 76 q=15.0 size=  637696kB time=00:00:54.02 bitrate=96703.8kbits/s speed=1.25x    frame= 3308 fps= 76 q=15.0 size=  644864kB time=00:00:54.62 bitrate=96715.5kbits/s speed=1.25x    frame= 3347 fps= 76 q=16.0 size=  652288kB time=00:00:55.27 bitrate=96677.3kbits/s speed=1.25x    frame= 3384 fps= 76 q=17.0 size=  659456kB time=00:00:55.88 bitrate=96660.2kbits/s speed=1.25x    frame= 3420 fps= 76 q=16.0 size=  666112kB time=00:00:56.48 bitrate=96597.8kbits/s speed=1.25x    frame= 3457 fps= 76 q=16.0 size=  672512kB time=00:00:57.10 bitrate=96471.7kbits/s speed=1.25x    frame= 3490 fps= 75 q=16.0 size=  677888kB time=00:00:57.65 bitrate=96314.3kbits/s speed=1.25x    frame= 3527 fps= 75 q=16.0 size=  684800kB time=00:00:58.27 bitrate=96265.8kbits/s speed=1.25x    frame= 3564 fps= 75 q=16.0 size=  691712kB time=00:00:58.89 bitrate=96218.2kbits/s speed=1.25x    frame= 3606 fps= 75 q=16.0 size=  699648kB time=00:00:59.59 bitrate=96177.8kbits/s speed=1.25x    frame= 3630 fps= 75 q=16.0 size=  704256kB time=00:00:59.99 bitrate=96165.1kbits/s speed=1.24x    frame= 3666 fps= 75 q=15.0 size=  711168kB time=00:01:00.59 bitrate=96146.4kbits/s speed=1.24x    frame= 3701 fps= 75 q=15.0 size=  717056kB time=00:01:01.17 bitrate=96017.2kbits/s speed=1.24x    frame= 3741 fps= 75 q=14.0 size=  723968kB time=00:01:01.84 bitrate=95896.7kbits/s speed=1.24x    frame= 3784 fps= 75 q=14.0 size=  730624kB time=00:01:02.56 bitrate=95668.6kbits/s speed=1.24x    frame= 3829 fps= 75 q=14.0 size=  737024kB time=00:01:03.31 bitrate=95362.3kbits/s speed=1.24x    frame= 3867 fps= 75 q=12.0 size=  742656kB time=00:01:03.94 bitrate=95138.4kbits/s speed=1.24x    frame= 3906 fps= 75 q=13.0 size=  749312kB time=00:01:04.59 bitrate=95024.2kbits/s speed=1.24x    frame= 3944 fps= 75 q=13.0 size=  754944kB time=00:01:05.23 bitrate=94808.0kbits/s speed=1.24x    frame= 3981 fps= 75 q=13.0 size=  761088kB time=00:01:05.84 bitrate=94683.6kbits/s speed=1.24x    frame= 4027 fps= 75 q=13.0 size=  769536kB time=00:01:06.61 bitrate=94631.7kbits/s speed=1.25x    frame= 4063 fps= 75 q=15.0 size=  776704kB time=00:01:07.21 bitrate=94659.7kbits/s speed=1.25x    frame= 4093 fps= 75 q=15.0 size=  785152kB time=00:01:07.71 bitrate=94982.0kbits/s speed=1.24x    frame= 4128 fps= 75 q=15.0 size=  795136kB time=00:01:08.30 bitrate=95367.5kbits/s speed=1.24x    frame= 4165 fps= 75 q=15.0 size=  804608kB time=00:01:08.91 bitrate=95639.2kbits/s speed=1.24x    frame= 4207 fps= 75 q=16.0 size=  815616kB time=00:01:09.61 bitrate=95971.9kbits/s speed=1.24x    frame= 4233 fps= 75 q=15.0 size=  822272kB time=00:01:10.05 bitrate=96156.0kbits/s speed=1.24x    frame= 4269 fps= 75 q=16.0 size=  831488kB time=00:01:10.65 bitrate=96407.2kbits/s speed=1.24x    frame= 4304 fps= 75 q=15.0 size=  840704kB time=00:01:11.23 bitrate=96676.8kbits/s speed=1.24x    frame= 4340 fps= 75 q=14.0 size=  848640kB time=00:01:11.83 bitrate=96773.5kbits/s speed=1.24x    frame= 4375 fps= 75 q=16.0 size=  857344kB time=00:01:12.42 bitrate=96977.8kbits/s speed=1.24x    frame= 4409 fps= 75 q=15.0 size=  865024kB time=00:01:12.98 bitrate=97086.1kbits/s speed=1.23x    frame= 4448 fps= 75 q=16.0 size=  873984kB time=00:01:13.64 bitrate=97225.0kbits/s speed=1.23x    frame= 4481 fps= 75 q=16.0 size=  882688kB time=00:01:14.19 bitrate=97464.6kbits/s speed=1.23x    frame= 4521 fps= 75 q=16.0 size=  892928kB time=00:01:14.85 bitrate=97716.3kbits/s speed=1.23x    frame= 4558 fps= 75 q=17.0 size=  902144kB time=00:01:15.47 bitrate=97917.5kbits/s speed=1.23x    frame= 4584 fps= 74 q=16.0 size=  909056kB time=00:01:15.90 bitrate=98103.9kbits/s speed=1.23x    frame= 4624 fps= 74 q=13.0 size=  920064kB time=00:01:16.57 bitrate=98426.5kbits/s speed=1.23x    frame= 4678 fps= 75 q=13.0 size=  927232kB time=00:01:17.47 bitrate=98039.9kbits/s speed=1.24x    frame= 4712 fps= 75 q=13.0 size=  931584kB time=00:01:18.04 bitrate=97784.2kbits/s speed=1.24x    frame= 4763 fps= 75 q=12.0 size=  937984kB time=00:01:18.89 bitrate=97394.2kbits/s speed=1.24x    frame= 4808 fps= 75 q=13.0 size=  943616kB time=00:01:19.64 bitrate=97055.4kbits/s speed=1.24x    frame= 4847 fps= 75 q=12.0 size=  949248kB time=00:01:20.29 bitrate=96843.6kbits/s speed=1.24x    frame= 4888 fps= 75 q=12.0 size=  954880kB time=00:01:20.98 bitrate=96595.3kbits/s speed=1.24x    frame= 4931 fps= 75 q=13.0 size=  962048kB time=00:01:21.69 bitrate=96465.8kbits/s speed=1.24x    frame= 4969 fps= 75 q=11.0 size=  969984kB time=00:01:22.33 bitrate=96512.7kbits/s speed=1.24x    frame= 5018 fps= 75 q=11.0 size=  978176kB time=00:01:23.14 bitrate=96370.9kbits/s speed=1.25x    frame= 5055 fps= 75 q=12.0 size=  984576kB time=00:01:23.76 bitrate=96286.6kbits/s speed=1.25x    frame= 5091 fps= 75 q=12.0 size=  992512kB time=00:01:24.36 bitrate=96371.7kbits/s speed=1.24x    frame= 5130 fps= 75 q=14.0 size=  999168kB time=00:01:25.01 bitrate=96275.5kbits/s speed=1.24x    frame= 5173 fps= 75 q=14.0 size= 1006080kB time=00:01:25.73 bitrate=96130.4kbits/s speed=1.25x    frame= 5209 fps= 75 q=15.0 size= 1012480kB time=00:01:26.33 bitrate=96068.9kbits/s speed=1.25x    frame= 5247 fps= 75 q=14.0 size= 1020160kB time=00:01:26.97 bitrate=96092.1kbits/s speed=1.24x    frame= 5281 fps= 75 q=14.0 size= 1028096kB time=00:01:27.53 bitrate=96212.1kbits/s speed=1.24x    frame= 5307 fps= 75 q=15.0 size= 1034752kB time=00:01:27.97 bitrate=96357.5kbits/s speed=1.24x    frame= 5341 fps= 75 q=15.0 size= 1043712kB time=00:01:28.53 bitrate=96569.2kbits/s speed=1.24x    frame= 5379 fps= 75 q=14.0 size= 1052928kB time=00:01:29.17 bitrate=96729.3kbits/s speed=1.24x    frame= 5416 fps= 75 q=15.0 size= 1060352kB time=00:01:29.78 bitrate=96741.6kbits/s speed=1.24x    frame= 5461 fps= 75 q=15.0 size= 1070336kB time=00:01:30.54 bitrate=96842.8kbits/s speed=1.24x    frame= 5499 fps= 75 q=14.0 size= 1078272kB time=00:01:31.17 bitrate=96882.4kbits/s speed=1.24x    frame= 5527 fps= 75 q=18.0 size= 1084160kB time=00:01:31.64 bitrate=96914.9kbits/s speed=1.24x    frame= 5555 fps= 75 q=17.0 size= 1097472kB time=00:01:32.10 bitrate=97607.4kbits/s speed=1.24x    frame= 5592 fps= 75 q=18.0 size= 1112576kB time=00:01:32.72 bitrate=98292.0kbits/s speed=1.24x    frame= 5628 fps= 75 q=19.0 size= 1126656kB time=00:01:33.32 bitrate=98895.3kbits/s speed=1.24x    frame= 5659 fps= 74 q=19.0 size= 1137920kB time=00:01:33.84 bitrate=99333.6kbits/s speed=1.23x    frame= 5690 fps= 74 q=19.0 size= 1150208kB time=00:01:34.36 bitrate=99855.9kbits/s speed=1.23x    frame= 5734 fps= 74 q=19.0 size= 1165824kB time=00:01:35.09 bitrate=100430.4kbits/s speed=1.23x    frame= 5764 fps= 74 q=22.0 size= 1175040kB time=00:01:35.59 bitrate=100694.3kbits/s speed=1.23x    frame= 5788 fps= 74 q=19.0 size= 1182720kB time=00:01:35.99 bitrate=100929.7kbits/s speed=1.23x    frame= 5821 fps= 74 q=19.0 size= 1193984kB time=00:01:36.54 bitrate=101309.9kbits/s speed=1.23x    frame= 5857 fps= 74 q=19.0 size= 1204992kB time=00:01:37.14 bitrate=101611.8kbits/s speed=1.23x    frame= 5893 fps= 74 q=18.0 size= 1214464kB time=00:01:37.74 bitrate=101781.3kbits/s speed=1.23x    frame= 5928 fps= 74 q=18.0 size= 1223424kB time=00:01:38.33 bitrate=101923.4kbits/s speed=1.23x    frame= 5970 fps= 74 q=16.0 size= 1232128kB time=00:01:39.03 bitrate=101922.2kbits/s speed=1.23x    frame= 6009 fps= 74 q=16.0 size= 1238272kB time=00:01:39.68 bitrate=101761.9kbits/s speed=1.23x    frame= 6042 fps= 74 q=16.0 size= 1243392kB time=00:01:40.23 bitrate=101621.4kbits/s speed=1.23x    frame= 6079 fps= 74 q=16.0 size= 1249024kB time=00:01:40.85 bitrate=101456.9kbits/s speed=1.23x    frame= 6118 fps= 74 q=16.0 size= 1255680kB time=00:01:41.50 bitrate=101343.7kbits/s speed=1.23x    frame= 6153 fps= 74 q=16.0 size= 1261568kB time=00:01:42.08 bitrate=101236.5kbits/s speed=1.23x    frame= 6192 fps= 74 q=15.0 size= 1268224kB time=00:01:42.73 bitrate=101126.1kbits/s speed=1.23x    frame= 6235 fps= 74 q=16.0 size= 1274880kB time=00:01:43.45 bitrate=100951.9kbits/s speed=1.23x    frame= 6269 fps= 74 q=16.0 size= 1280512kB time=00:01:44.02 bitrate=100844.9kbits/s speed=1.23x    frame= 6308 fps= 74 q=16.0 size= 1287680kB time=00:01:44.67 bitrate=100779.1kbits/s speed=1.23x    frame= 6343 fps= 74 q=16.0 size= 1293568kB time=00:01:45.25 bitrate=100678.3kbits/s speed=1.23x    frame= 6379 fps= 74 q=16.0 size= 1299712kB time=00:01:45.85 bitrate=100582.5kbits/s speed=1.23x    frame= 6419 fps= 74 q=16.0 size= 1307392kB time=00:01:46.52 bitrate=100543.0kbits/s speed=1.23x    frame= 6462 fps= 74 q=19.0 size= 1315072kB time=00:01:47.24 bitrate=100457.1kbits/s speed=1.23x    frame= 6499 fps= 74 q=19.0 size= 1325568kB time=00:01:47.85 bitrate=100679.4kbits/s speed=1.23x    frame= 6532 fps= 74 q=20.0 size= 1336832kB time=00:01:48.40 bitrate=101019.2kbits/s speed=1.23x    frame= 6571 fps= 74 q=20.0 size= 1349120kB time=00:01:49.05 bitrate=101339.6kbits/s speed=1.23x    frame= 6606 fps= 74 q=22.0 size= 1361152kB time=00:01:49.64 bitrate=101698.8kbits/s speed=1.23x    frame= 6629 fps= 74 q=21.0 size= 1369856kB time=00:01:50.02 bitrate=101992.2kbits/s speed=1.22x    frame= 6664 fps= 74 q=21.0 size= 1383936kB time=00:01:50.61 bitrate=102496.6kbits/s speed=1.22x    frame= 6703 fps= 74 q=22.0 size= 1398528kB time=00:01:51.26 bitrate=102971.6kbits/s speed=1.22x    frame= 6738 fps= 74 q=18.0 size= 1411584kB time=00:01:51.84 bitrate=103390.3kbits/s speed=1.22x    frame= 6774 fps= 74 q=16.0 size= 1423360kB time=00:01:52.44 bitrate=103696.0kbits/s speed=1.22x    frame= 6821 fps= 74 q=17.0 size= 1432576kB time=00:01:53.22 bitrate=103644.6kbits/s speed=1.22x    frame= 6859 fps= 74 q=16.0 size= 1438976kB time=00:01:53.86 bitrate=103528.0kbits/s speed=1.22x    frame= 6899 fps= 74 q=16.0 size= 1446656kB time=00:01:54.53 bitrate=103474.1kbits/s speed=1.23x    frame= 6951 fps= 74 q=16.0 size= 1454848kB time=00:01:55.39 bitrate=103277.8kbits/s speed=1.23x    frame= 6987 fps= 74 q=14.0 size= 1460224kB time=00:01:55.99 bitrate=103122.7kbits/s speed=1.23x    frame= 7033 fps= 74 q=18.0 size= 1468160kB time=00:01:56.76 bitrate=103001.7kbits/s speed=1.23x    frame= 7081 fps= 74 q=16.0 size= 1476608kB time=00:01:57.56 bitrate=102888.8kbits/s speed=1.23x    frame= 7111 fps= 74 q=16.0 size= 1482240kB time=00:01:58.06 bitrate=102843.4kbits/s speed=1.23x    frame= 7157 fps= 74 q=14.0 size= 1489408kB time=00:01:58.83 bitrate=102673.3kbits/s speed=1.23x    frame= 7205 fps= 74 q=18.0 size= 1495808kB time=00:01:59.63 bitrate=102424.3kbits/s speed=1.23x    frame= 7247 fps= 74 q=14.0 size= 1501184kB time=00:02:00.33 bitrate=102193.9kbits/s speed=1.23x    frame= 7301 fps= 74 q=15.0 size= 1508096kB time=00:02:01.23 bitrate=101901.6kbits/s speed=1.24x    frame= 7341 fps= 74 q=14.0 size= 1512960kB time=00:02:01.90 bitrate=101670.6kbits/s speed=1.24x    frame= 7386 fps= 75 q=14.0 size= 1518336kB time=00:02:02.65 bitrate=101407.3kbits/s speed=1.24x    frame= 7440 fps= 75 q=15.0 size= 1523968kB time=00:02:03.55 bitrate=101041.3kbits/s speed=1.24x    frame= 7478 fps= 75 q=14.0 size= 1528320kB time=00:02:04.19 bitrate=100812.6kbits/s speed=1.24x    frame= 7528 fps= 75 q=14.0 size= 1533440kB time=00:02:05.02 bitrate=100475.5kbits/s speed=1.24x    frame= 7577 fps= 75 q=11.0 size= 1538816kB time=00:02:05.84 bitrate=100172.7kbits/s speed=1.24x    frame= 7621 fps= 75 q=11.0 size= 1543424kB time=00:02:06.57 bitrate=99890.0kbits/s speed=1.25x    frame= 7671 fps= 75 q=11.0 size= 1548544kB time=00:02:07.41 bitrate=99565.2kbits/s speed=1.25x    frame= 7711 fps= 75 q=15.0 size= 1552896kB time=00:02:08.07 bitrate=99324.8kbits/s speed=1.25x    frame= 7755 fps= 75 q=15.0 size= 1560576kB time=00:02:08.81 bitrate=99247.2kbits/s speed=1.25x    frame= 7790 fps= 75 q=18.0 size= 1565952kB time=00:02:09.39 bitrate=99139.7kbits/s speed=1.25x    frame= 7819 fps= 75 q=18.0 size= 1572096kB time=00:02:09.87 bitrate=99157.9kbits/s speed=1.25x    frame= 7853 fps= 75 q=17.0 size= 1581568kB time=00:02:10.44 bitrate=99321.6kbits/s speed=1.25x    frame= 7892 fps= 75 q=16.0 size= 1590016kB time=00:02:11.09 bitrate=99356.5kbits/s speed=1.25x    frame= 7930 fps= 75 q=17.0 size= 1597440kB time=00:02:11.73 bitrate=99340.1kbits/s speed=1.25x    frame= 7976 fps= 75 q=15.0 size= 1607168kB time=00:02:12.49 bitrate=99366.1kbits/s speed=1.25x    frame= 8021 fps= 75 q=16.0 size= 1615360kB time=00:02:13.24 bitrate=99309.9kbits/s speed=1.25x    frame= 8053 fps= 75 q=17.0 size= 1622784kB time=00:02:13.78 bitrate=99368.2kbits/s speed=1.25x    frame= 8086 fps= 75 q=18.0 size= 1630976kB time=00:02:14.33 bitrate=99460.5kbits/s speed=1.25x    frame= 8123 fps= 75 q=18.0 size= 1640192kB time=00:02:14.95 bitrate=99565.0kbits/s speed=1.25x    frame= 8158 fps= 75 q=19.0 size= 1650432kB time=00:02:15.53 bitrate=99755.0kbits/s speed=1.25x    frame= 8187 fps= 75 q=19.0 size= 1659392kB time=00:02:16.01 bitrate=99939.8kbits/s speed=1.25x    frame= 8227 fps= 75 q=21.0 size= 1673216kB time=00:02:16.68 bitrate=100280.4kbits/s speed=1.25x    frame= 8263 fps= 75 q=21.0 size= 1688064kB time=00:02:17.28 bitrate=100727.7kbits/s speed=1.25x    frame= 8292 fps= 75 q=22.0 size= 1701888kB time=00:02:17.77 bitrate=101195.9kbits/s speed=1.24x    frame= 8320 fps= 75 q=22.0 size= 1716480kB time=00:02:18.23 bitrate=101718.7kbits/s speed=1.24x    frame= 8353 fps= 75 q=23.0 size= 1732608kB time=00:02:18.78 bitrate=102267.2kbits/s speed=1.24x    frame= 8395 fps= 75 q=23.0 size= 1752064kB time=00:02:19.48 bitrate=102896.1kbits/s speed=1.24x    frame= 8422 fps= 75 q=24.0 size= 1763584kB time=00:02:19.93 bitrate=103239.2kbits/s speed=1.24x    frame= 8453 fps= 75 q=24.0 size= 1776640kB time=00:02:20.45 bitrate=103620.6kbits/s speed=1.24x    frame= 8490 fps= 75 q=24.0 size= 1791488kB time=00:02:21.07 bitrate=104029.4kbits/s speed=1.24x    frame= 8531 fps= 75 q=17.0 size= 1807104kB time=00:02:21.75 bitrate=104429.8kbits/s speed=1.24x    frame= 8571 fps= 75 q=16.0 size= 1810944kB time=00:02:22.42 bitrate=104161.4kbits/s speed=1.24x    frame= 8621 fps= 75 q=16.0 size= 1816064kB time=00:02:23.25 bitrate=103847.7kbits/s speed=1.24x    frame= 8662 fps= 75 q=17.0 size= 1820160kB time=00:02:23.94 bitrate=103587.3kbits/s speed=1.24x    frame= 8707 fps= 75 q=17.0 size= 1824768kB time=00:02:24.69 bitrate=103310.7kbits/s speed=1.24x    frame= 8757 fps= 75 q=16.0 size= 1829888kB time=00:02:25.52 bitrate=103006.7kbits/s speed=1.25x    frame= 8787 fps= 75 q=15.0 size= 1833472kB time=00:02:26.02 bitrate=102854.7kbits/s speed=1.24x    frame= 8823 fps= 75 q=19.0 size= 1838336kB time=00:02:26.62 bitrate=102705.2kbits/s speed=1.24x    frame= 8861 fps= 75 q=19.0 size= 1844224kB time=00:02:27.26 bitrate=102590.6kbits/s speed=1.24x    frame= 8898 fps= 75 q=18.0 size= 1849856kB time=00:02:27.88 bitrate=102474.3kbits/s speed=1.24x    frame= 8934 fps= 75 q=18.0 size= 1856000kB time=00:02:28.48 bitrate=102398.8kbits/s speed=1.24x    frame= 8967 fps= 75 q=19.0 size= 1861120kB time=00:02:29.03 bitrate=102302.0kbits/s speed=1.24x    frame= 9003 fps= 75 q=16.0 size= 1866752kB time=00:02:29.63 bitrate=102199.7kbits/s speed=1.24x    frame= 9044 fps= 75 q=20.0 size= 1873408kB time=00:02:30.31 bitrate=102097.4kbits/s speed=1.24x    frame= 9083 fps= 75 q=17.0 size= 1879296kB time=00:02:30.96 bitrate=101976.9kbits/s speed=1.24x    frame= 9125 fps= 75 q=19.0 size= 1883648kB time=00:02:31.66 bitrate=101740.8kbits/s speed=1.24x    frame= 9154 fps= 75 q=18.0 size= 1887488kB time=00:02:32.15 bitrate=101624.0kbits/s speed=1.24x    frame= 9197 fps= 75 q=17.0 size= 1891840kB time=00:02:32.86 bitrate=101380.3kbits/s speed=1.24x    frame= 9240 fps= 75 q=17.0 size= 1896448kB time=00:02:33.58 bitrate=101152.6kbits/s speed=1.24x    frame= 9267 fps= 75 q=18.0 size= 1899776kB time=00:02:34.03 bitrate=101033.8kbits/s speed=1.24x    frame= 9304 fps= 75 q=17.0 size= 1906176kB time=00:02:34.65 bitrate=100969.5kbits/s speed=1.24x    frame= 9351 fps= 75 q=17.0 size= 1914368kB time=00:02:35.43 bitrate=100891.9kbits/s speed=1.24x    frame= 9383 fps= 75 q=17.0 size= 1919232kB time=00:02:35.97 bitrate=100802.0kbits/s speed=1.24x    frame= 9426 fps= 75 q=16.0 size= 1927424kB time=00:02:36.68 bitrate=100768.8kbits/s speed=1.24x    frame= 9465 fps= 75 q=17.0 size= 1934336kB time=00:02:37.34 bitrate=100712.0kbits/s speed=1.24x    frame= 9499 fps= 75 q=18.0 size= 1940224kB time=00:02:37.90 bitrate=100655.7kbits/s speed=1.24x    frame= 9537 fps= 75 q=17.0 size= 1947904kB time=00:02:38.54 bitrate=100650.0kbits/s speed=1.24x    frame= 9575 fps= 75 q=17.0 size= 1955072kB time=00:02:39.17 bitrate=100618.0kbits/s speed=1.24x    frame= 9612 fps= 75 q=17.0 size= 1961216kB time=00:02:39.79 bitrate=100544.3kbits/s speed=1.24x    frame= 9655 fps= 75 q=17.0 size= 1968640kB time=00:02:40.51 bitrate=100473.9kbits/s speed=1.24x    frame= 9695 fps= 75 q=16.0 size= 1974528kB time=00:02:41.17 bitrate=100357.1kbits/s speed=1.24x    frame= 9737 fps= 75 q=16.0 size= 1981184kB time=00:02:41.87 bitrate=100259.6kbits/s speed=1.24x    frame= 9770 fps= 75 q=20.0 size= 1987840kB time=00:02:42.42 bitrate=100255.4kbits/s speed=1.24x    frame= 9811 fps= 75 q=20.0 size= 1999872kB time=00:02:43.11 bitrate=100439.3kbits/s speed=1.24x    frame= 9843 fps= 75 q=17.0 size= 2009088kB time=00:02:43.64 bitrate=100573.0kbits/s speed=1.24x    frame= 9869 fps= 75 q=20.0 size= 2016512kB time=00:02:44.08 bitrate=100677.7kbits/s speed=1.24x    frame= 9905 fps= 75 q=20.0 size= 2027008kB time=00:02:44.68 bitrate=100832.7kbits/s speed=1.24x    frame= 9946 fps= 75 q=20.0 size= 2038272kB time=00:02:45.36 bitrate=100973.6kbits/s speed=1.24x    frame= 9974 fps= 75 q=20.0 size= 2046720kB time=00:02:45.83 bitrate=101106.5kbits/s speed=1.24x    frame=10008 fps= 75 q=21.0 size= 2057728kB time=00:02:46.39 bitrate=101303.8kbits/s speed=1.24x    frame=10045 fps= 75 q=17.0 size= 2068736kB time=00:02:47.01 bitrate=101469.3kbits/s speed=1.24x    frame=10085 fps= 75 q=18.0 size= 2077696kB time=00:02:47.68 bitrate=101503.2kbits/s speed=1.24x    frame=10125 fps= 75 q=17.0 size= 2082816kB time=00:02:48.35 bitrate=101350.0kbits/s speed=1.24x    frame=10167 fps= 75 q=16.0 size= 2087680kB time=00:02:49.05 bitrate=101165.6kbits/s speed=1.24x    frame=10210 fps= 75 q=17.0 size= 2093056kB time=00:02:49.76 bitrate=100997.5kbits/s speed=1.24x    frame=10249 fps= 75 q=16.0 size= 2098432kB time=00:02:50.42 bitrate=100870.4kbits/s speed=1.24x    frame=10289 fps= 75 q=16.0 size= 2103296kB time=00:02:51.08 bitrate=100709.8kbits/s speed=1.24x    frame=10335 fps= 75 q=15.0 size= 2109184kB time=00:02:51.85 bitrate=100540.7kbits/s speed=1.24x    frame=10373 fps= 75 q=16.0 size= 2114816kB time=00:02:52.48 bitrate=100438.7kbits/s speed=1.24x    frame=10417 fps= 75 q=15.0 size= 2120192kB time=00:02:53.22 bitrate=100267.3kbits/s speed=1.24x    frame=10461 fps= 75 q=16.0 size= 2126080kB time=00:02:53.95 bitrate=100121.5kbits/s speed=1.24x    frame=10500 fps= 75 q=16.0 size= 2131712kB time=00:02:54.60 bitrate=100012.6kbits/s speed=1.24x    frame=10542 fps= 75 q=15.0 size= 2136320kB time=00:02:55.30 bitrate=99828.2kbits/s speed=1.24x    frame=10575 fps= 75 q=15.0 size= 2139648kB time=00:02:55.85 bitrate=99670.7kbits/s speed=1.24x    frame=10612 fps= 75 q=15.0 size= 2144000kB time=00:02:56.47 bitrate=99524.1kbits/s speed=1.24x    frame=10653 fps= 75 q=15.0 size= 2148096kB time=00:02:57.16 bitrate=99329.2kbits/s speed=1.24x    frame=10693 fps= 75 q=15.0 size= 2152704kB time=00:02:57.82 bitrate=99168.8kbits/s speed=1.24x    frame=10732 fps= 75 q=14.0 size= 2159360kB time=00:02:58.47 bitrate=99112.7kbits/s speed=1.24x    frame=10778 fps= 75 q=14.0 size= 2164992kB time=00:02:59.24 bitrate=98945.8kbits/s speed=1.24x    frame=10813 fps= 75 q=13.0 size= 2169856kB time=00:02:59.82 bitrate=98846.1kbits/s speed=1.24x    frame=10851 fps= 75 q=14.0 size= 2174208kB time=00:03:00.46 bitrate=98696.4kbits/s speed=1.24x    frame=10892 fps= 75 q=14.0 size= 2179072kB time=00:03:01.14 bitrate=98543.7kbits/s speed=1.24x    frame=10939 fps= 75 q=12.0 size= 2184960kB time=00:03:01.93 bitrate=98384.1kbits/s speed=1.25x    frame=10981 fps= 75 q=13.0 size= 2190336kB time=00:03:02.63 bitrate=98247.8kbits/s speed=1.25x    frame=11023 fps= 75 q=20.0 size= 2195200kB time=00:03:03.33 bitrate=98089.6kbits/s speed=1.25x    frame=11056 fps= 75 q=20.0 size= 2202880kB time=00:03:03.88 bitrate=98138.1kbits/s speed=1.25x    frame=11094 fps= 75 q=24.0 size= 2223872kB time=00:03:04.51 bitrate=98732.9kbits/s speed=1.25x    frame=11125 fps= 75 q=24.0 size= 2242816kB time=00:03:05.03 bitrate=99295.6kbits/s speed=1.24x    frame=11155 fps= 75 q=25.0 size= 2256384kB time=00:03:05.53 bitrate=99626.8kbits/s speed=1.24x    frame=11181 fps= 75 q=24.0 size= 2267136kB time=00:03:05.96 bitrate=99868.1kbits/s speed=1.24x    frame=11209 fps= 75 q=24.0 size= 2277632kB time=00:03:06.43 bitrate=100079.0kbits/s speed=1.24x    frame=11244 fps= 75 q=24.0 size= 2290688kB time=00:03:07.02 bitrate=100338.4kbits/s speed=1.24x    frame=11281 fps= 75 q=24.0 size= 2305536kB time=00:03:07.63 bitrate=100656.6kbits/s speed=1.24x    frame=11306 fps= 75 q=24.0 size= 2315520kB time=00:03:08.05 bitrate=100868.3kbits/s speed=1.24x    frame=11342 fps= 75 q=20.0 size= 2329856kB time=00:03:08.65 bitrate=101169.7kbits/s speed=1.24x    frame=11377 fps= 74 q=19.0 size= 2342656kB time=00:03:09.23 bitrate=101411.6kbits/s speed=1.24x    frame=11412 fps= 74 q=21.0 size= 2355712kB time=00:03:09.82 bitrate=101663.1kbits/s speed=1.24x    frame=11457 fps= 74 q=21.0 size= 2373120kB time=00:03:10.57 bitrate=102010.9kbits/s speed=1.24x    frame=11496 fps= 75 q=21.0 size= 2386432kB time=00:03:11.22 bitrate=102234.1kbits/s speed=1.24x    frame=11529 fps= 74 q=22.0 size= 2397696kB time=00:03:11.77 bitrate=102421.7kbits/s speed=1.24x    frame=11554 fps= 74 q=21.0 size= 2407424kB time=00:03:12.19 bitrate=102614.1kbits/s speed=1.24x    frame=11597 fps= 74 q=22.0 size= 2422016kB time=00:03:12.90 bitrate=102852.2kbits/s speed=1.24x    frame=11633 fps= 74 q=21.0 size= 2434304kB time=00:03:13.51 bitrate=103053.2kbits/s speed=1.24x    frame=11661 fps= 74 q=22.0 size= 2444032kB time=00:03:13.97 bitrate=103215.8kbits/s speed=1.24x    frame=11696 fps= 74 q=20.0 size= 2456576kB time=00:03:14.56 bitrate=103434.2kbits/s speed=1.24x    frame=11733 fps= 74 q=21.0 size= 2467072kB time=00:03:15.17 bitrate=103547.6kbits/s speed=1.24x    frame=11769 fps= 74 q=22.0 size= 2477312kB time=00:03:15.77 bitrate=103658.4kbits/s speed=1.24x    frame=11805 fps= 74 q=22.0 size= 2488064kB time=00:03:16.37 bitrate=103789.9kbits/s speed=1.24x    frame=11846 fps= 74 q=22.0 size= 2499584kB time=00:03:17.06 bitrate=103908.6kbits/s speed=1.24x    frame=11882 fps= 74 q=22.0 size= 2510080kB time=00:03:17.66 bitrate=104027.8kbits/s speed=1.24x    frame=11909 fps= 74 q=22.0 size= 2517760kB time=00:03:18.11 bitrate=104108.9kbits/s speed=1.24x    frame=11947 fps= 74 q=22.0 size= 2528256kB time=00:03:18.74 bitrate=104209.4kbits/s speed=1.24x    frame=11982 fps= 74 q=21.0 size= 2537216kB time=00:03:19.33 bitrate=104272.4kbits/s speed=1.23x    frame=12018 fps= 74 q=21.0 size= 2546944kB time=00:03:19.93 bitrate=104357.7kbits/s speed=1.23x    frame=12058 fps= 74 q=22.0 size= 2557952kB time=00:03:20.60 bitrate=104460.1kbits/s speed=1.23x    frame=12094 fps= 74 q=22.0 size= 2566912kB time=00:03:21.20 bitrate=104513.1kbits/s speed=1.23x    frame=12131 fps= 74 q=21.0 size= 2576640kB time=00:03:21.81 bitrate=104588.3kbits/s speed=1.23x    frame=12166 fps= 74 q=18.0 size= 2584576kB time=00:03:22.40 bitrate=104607.8kbits/s speed=1.23x    frame=12211 fps= 74 q=19.0 size= 2588416kB time=00:03:23.15 bitrate=104376.0kbits/s speed=1.24x    frame=12251 fps= 74 q=18.0 size= 2592256kB time=00:03:23.82 bitrate=104188.6kbits/s speed=1.24x    frame=12285 fps= 74 q=18.0 size= 2595584kB time=00:03:24.38 bitrate=104032.9kbits/s speed=1.23x    frame=12333 fps= 74 q=18.0 size= 2600192kB time=00:03:25.18 bitrate=103810.8kbits/s speed=1.24x    frame=12369 fps= 74 q=18.0 size= 2603520kB time=00:03:25.78 bitrate=103640.3kbits/s speed=1.24x    frame=12403 fps= 74 q=18.0 size= 2607360kB time=00:03:26.35 bitrate=103507.9kbits/s speed=1.24x    frame=12453 fps= 74 q=19.0 size= 2612224kB time=00:03:27.19 bitrate=103283.5kbits/s speed=1.24x    frame=12493 fps= 74 q=18.0 size= 2616832kB time=00:03:27.85 bitrate=103133.5kbits/s speed=1.24x    frame=12532 fps= 74 q=18.0 size= 2621696kB time=00:03:28.50 bitrate=103002.8kbits/s speed=1.24x    frame=12582 fps= 74 q=18.0 size= 2627584kB time=00:03:29.34 bitrate=102822.7kbits/s speed=1.24x    frame=12618 fps= 74 q=17.0 size= 2631680kB time=00:03:29.94 bitrate=102688.4kbits/s speed=1.24x    frame=12653 fps= 74 q=22.0 size= 2636288kB time=00:03:30.52 bitrate=102582.9kbits/s speed=1.24x    frame=12683 fps= 74 q=21.0 size= 2640640kB time=00:03:31.02 bitrate=102508.5kbits/s speed=1.24x    frame=12714 fps= 74 q=21.0 size= 2648832kB time=00:03:31.54 bitrate=102575.2kbits/s speed=1.24x    frame=12749 fps= 74 q=21.0 size= 2657792kB time=00:03:32.12 bitrate=102638.8kbits/s speed=1.24x    frame=12791 fps= 74 q=21.0 size= 2667264kB time=00:03:32.82 bitrate=102665.5kbits/s speed=1.24x    frame=12829 fps= 74 q=20.0 size= 2674944kB time=00:03:33.46 bitrate=102655.3kbits/s speed=1.24x    frame=12857 fps= 74 q=21.0 size= 2680064kB time=00:03:33.93 bitrate=102627.2kbits/s speed=1.23x    frame=12890 fps= 74 q=20.0 size= 2686464kB time=00:03:34.48 bitrate=102608.2kbits/s speed=1.23x    frame=12929 fps= 74 q=20.0 size= 2693376kB time=00:03:35.13 bitrate=102561.1kbits/s speed=1.23x    frame=12965 fps= 74 q=22.0 size= 2700032kB time=00:03:35.73 bitrate=102528.3kbits/s speed=1.23x    frame=12992 fps= 74 q=20.0 size= 2704896kB time=00:03:36.18 bitrate=102499.0kbits/s speed=1.23x    frame=13027 fps= 74 q=20.0 size= 2711808kB time=00:03:36.76 bitrate=102484.1kbits/s speed=1.23x    frame=13065 fps= 74 q=18.0 size= 2718720kB time=00:03:37.40 bitrate=102445.7kbits/s speed=1.23x    frame=13105 fps= 74 q=18.0 size= 2725632kB time=00:03:38.06 bitrate=102391.9kbits/s speed=1.23x    frame=13146 fps= 74 q=19.0 size= 2732288kB time=00:03:38.75 bitrate=102321.0kbits/s speed=1.23x    frame=13182 fps= 74 q=19.0 size= 2737920kB time=00:03:39.35 bitrate=102251.1kbits/s speed=1.23x    frame=13213 fps= 74 q=19.0 size= 2742528kB time=00:03:39.86 bitrate=102182.3kbits/s speed=1.23x    frame=13243 fps= 74 q=19.0 size= 2747904kB time=00:03:40.37 bitrate=102150.1kbits/s speed=1.23x    frame=13281 fps= 74 q=20.0 size= 2754048kB time=00:03:41.00 bitrate=102084.8kbits/s speed=1.23x    frame=13320 fps= 74 q=20.0 size= 2760448kB time=00:03:41.65 bitrate=102021.7kbits/s speed=1.23x    frame=13349 fps= 74 q=19.0 size= 2765056kB time=00:03:42.13 bitrate=101969.4kbits/s speed=1.23x    frame=13389 fps= 74 q=16.0 size= 2771456kB time=00:03:42.80 bitrate=101899.3kbits/s speed=1.23x    frame=13428 fps= 74 q=17.0 size= 2777856kB time=00:03:43.45 bitrate=101837.2kbits/s speed=1.23x    frame=13470 fps= 74 q=17.0 size= 2784768kB time=00:03:44.15 bitrate=101771.5kbits/s speed=1.23x    frame=13510 fps= 74 q=17.0 size= 2791680kB time=00:03:44.82 bitrate=101721.2kbits/s speed=1.23x    frame=13557 fps= 74 q=17.0 size= 2800640kB time=00:03:45.60 bitrate=101693.1kbits/s speed=1.23x    frame=13590 fps= 74 q=17.0 size= 2806272kB time=00:03:46.15 bitrate=101649.5kbits/s speed=1.23x    frame=13631 fps= 74 q=17.0 size= 2813696kB time=00:03:46.84 bitrate=101611.1kbits/s speed=1.23x    frame=13675 fps= 74 q=17.0 size= 2821120kB time=00:03:47.57 bitrate=101550.6kbits/s speed=1.23x    frame=13705 fps= 74 q=17.0 size= 2826240kB time=00:03:48.07 bitrate=101511.6kbits/s speed=1.23x    frame=13748 fps= 74 q=17.0 size= 2830080kB time=00:03:48.79 bitrate=101330.8kbits/s speed=1.23x    frame=13796 fps= 74 q=16.0 size= 2834432kB time=00:03:49.59 bitrate=101132.7kbits/s speed=1.23x    frame=13828 fps= 74 q=16.0 size= 2837248kB time=00:03:50.12 bitrate=100998.3kbits/s speed=1.23x    frame=13873 fps= 74 q=18.0 size= 2841600kB time=00:03:50.88 bitrate=100824.3kbits/s speed=1.23x    frame=13914 fps= 74 q=17.0 size= 2845696kB time=00:03:51.56 bitrate=100671.4kbits/s speed=1.23x    frame=13945 fps= 74 q=16.0 size= 2848256kB time=00:03:52.08 bitrate=100537.4kbits/s speed=1.23x    frame=13981 fps= 74 q=16.0 size= 2851840kB time=00:03:52.68 bitrate=100404.1kbits/s speed=1.23x    frame=14018 fps= 74 q=16.0 size= 2855424kB time=00:03:53.29 bitrate=100264.3kbits/s speed=1.23x    frame=14057 fps= 74 q=16.0 size= 2859008kB time=00:03:53.95 bitrate=100110.9kbits/s speed=1.23x    frame=14099 fps= 74 q=16.0 size= 2863104kB time=00:03:54.65 bitrate=99955.0kbits/s speed=1.23x    frame=14138 fps= 74 q=18.0 size= 2867712kB time=00:03:55.30 bitrate=99839.0kbits/s speed=1.23x    frame=14179 fps= 74 q=18.0 size= 2877440kB time=00:03:55.98 bitrate=99887.3kbits/s speed=1.23x    frame=14216 fps= 74 q=18.0 size= 2886912kB time=00:03:56.60 bitrate=99954.7kbits/s speed=1.23x    frame=14253 fps= 74 q=18.0 size= 2894848kB time=00:03:57.22 bitrate=99968.6kbits/s speed=1.23x    frame=14294 fps= 74 q=18.0 size= 2905088kB time=00:03:57.90 bitrate=100033.8kbits/s speed=1.24x    frame=14331 fps= 74 q=18.0 size= 2913792kB time=00:03:58.52 bitrate=100073.9kbits/s speed=1.24x    frame=14378 fps= 74 q=18.0 size= 2924544kB time=00:03:59.30 bitrate=100114.0kbits/s speed=1.24x    frame=14414 fps= 74 q=18.0 size= 2932480kB time=00:03:59.90 bitrate=100134.4kbits/s speed=1.24x    frame=14448 fps= 74 q=17.0 size= 2941184kB time=00:04:00.47 bitrate=100194.7kbits/s speed=1.24x    frame=14487 fps= 74 q=18.0 size= 2949888kB time=00:04:01.12 bitrate=100220.0kbits/s speed=1.24x    frame=14527 fps= 74 q=19.0 size= 2957824kB time=00:04:01.79 bitrate=100212.3kbits/s speed=1.24x    frame=14569 fps= 74 q=18.0 size= 2968064kB time=00:04:02.49 bitrate=100268.7kbits/s speed=1.24x    frame=14605 fps= 74 q=19.0 size= 2976512kB time=00:04:03.09 bitrate=100305.6kbits/s speed=1.24x    frame=14645 fps= 74 q=21.0 size= 2986496kB time=00:04:03.76 bitrate=100366.6kbits/s speed=1.24x    frame=14670 fps= 74 q=19.0 size= 2992896kB time=00:04:04.17 bitrate=100409.8kbits/s speed=1.24x    frame=14711 fps= 74 q=17.0 size= 3004160kB time=00:04:04.86 bitrate=100506.2kbits/s speed=1.24x    frame=14754 fps= 74 q=16.0 size= 3011584kB time=00:04:05.57 bitrate=100460.2kbits/s speed=1.24x    frame=14790 fps= 74 q=16.0 size= 3016448kB time=00:04:06.17 bitrate=100377.0kbits/s speed=1.24x    frame=14833 fps= 74 q=16.0 size= 3022848kB time=00:04:06.89 bitrate=100297.7kbits/s speed=1.24x    frame=14876 fps= 74 q=16.0 size= 3028480kB time=00:04:07.61 bitrate=100193.5kbits/s speed=1.24x    frame=14911 fps= 74 q=17.0 size= 3033344kB time=00:04:08.19 bitrate=100118.3kbits/s speed=1.24x    frame=14955 fps= 74 q=17.0 size= 3041280kB time=00:04:08.93 bitrate=100084.2kbits/s speed=1.24x    frame=14998 fps= 74 q=16.0 size= 3048192kB time=00:04:09.64 bitrate=100023.4kbits/s speed=1.24x    frame=15029 fps= 74 q=17.0 size= 3053568kB time=00:04:10.16 bitrate=99992.7kbits/s speed=1.24x    frame=15067 fps= 74 q=21.0 size= 3060480kB time=00:04:10.80 bitrate=99965.7kbits/s speed=1.24x    frame=15105 fps= 74 q=22.0 size= 3077120kB time=00:04:11.43 bitrate=100255.8kbits/s speed=1.24x    frame=15132 fps= 74 q=22.0 size= 3089408kB time=00:04:11.88 bitrate=100476.1kbits/s speed=1.24x    frame=15157 fps= 74 q=23.0 size= 3100928kB time=00:04:12.30 bitrate=100684.1kbits/s speed=1.23x    frame=15189 fps= 74 q=22.0 size= 3114496kB time=00:04:12.83 bitrate=100911.1kbits/s speed=1.23x    frame=15225 fps= 74 q=22.0 size= 3129856kB time=00:04:13.43 bitrate=101168.4kbits/s speed=1.23x    frame=15261 fps= 74 q=22.0 size= 3144704kB time=00:04:14.03 bitrate=101408.1kbits/s speed=1.23x    frame=15293 fps= 74 q=22.0 size= 3158272kB time=00:04:14.57 bitrate=101632.0kbits/s speed=1.23x    frame=15325 fps= 74 q=21.0 size= 3169280kB time=00:04:15.10 bitrate=101772.8kbits/s speed=1.23x    frame=15363 fps= 74 q=18.0 size= 3180288kB time=00:04:15.73 bitrate=101873.1kbits/s speed=1.23x    frame=15408 fps= 74 q=22.0 size= 3192832kB time=00:04:16.48 bitrate=101975.6kbits/s speed=1.23x    frame=15444 fps= 74 q=18.0 size= 3205376kB time=00:04:17.09 bitrate=102137.1kbits/s speed=1.23x    frame=15484 fps= 74 q=20.0 size= 3212032kB time=00:04:17.75 bitrate=102084.2kbits/s speed=1.23x    frame=15529 fps= 74 q=18.0 size= 3216384kB time=00:04:18.50 bitrate=101925.6kbits/s speed=1.23x    frame=15569 fps= 74 q=17.0 size= 3219712kB time=00:04:19.17 bitrate=101768.4kbits/s speed=1.23x    frame=15604 fps= 74 q=20.0 size= 3223296kB time=00:04:19.75 bitrate=101652.6kbits/s speed=1.23x    frame=15633 fps= 74 q=18.0 size= 3225856kB time=00:04:20.24 bitrate=101544.2kbits/s speed=1.23x    frame=15671 fps= 74 q=17.0 size= 3229952kB time=00:04:20.87 bitrate=101426.1kbits/s speed=1.23x    frame=15709 fps= 74 q=18.0 size= 3233792kB time=00:04:21.51 bitrate=101300.5kbits/s speed=1.23x    frame=15748 fps= 74 q=17.0 size= 3237888kB time=00:04:22.16 bitrate=101177.1kbits/s speed=1.23x    frame=15788 fps= 74 q=16.0 size= 3244288kB time=00:04:22.82 bitrate=101119.7kbits/s speed=1.23x    frame=15835 fps= 74 q=15.0 size= 3250944kB time=00:04:23.61 bitrate=101025.7kbits/s speed=1.23x    frame=15868 fps= 74 q=16.0 size= 3255296kB time=00:04:24.16 bitrate=100950.1kbits/s speed=1.23x    frame=15910 fps= 74 q=15.0 size= 3262720kB time=00:04:24.86 bitrate=100912.7kbits/s speed=1.23x    frame=15959 fps= 74 q=15.0 size= 3270400kB time=00:04:25.68 bitrate=100839.0kbits/s speed=1.24x    frame=15990 fps= 74 q=15.0 size= 3275008kB time=00:04:26.19 bitrate=100784.9kbits/s speed=1.23x    frame=16034 fps= 74 q=18.0 size= 3283456kB time=00:04:26.93 bitrate=100767.0kbits/s speed=1.23x    frame=16072 fps= 74 q=18.0 size= 3289600kB time=00:04:27.56 bitrate=100716.3kbits/s speed=1.23x    frame=16104 fps= 74 q=18.0 size= 3294208kB time=00:04:28.10 bitrate=100656.6kbits/s speed=1.23x    frame=16149 fps= 74 q=17.0 size= 3301376kB time=00:04:28.85 bitrate=100593.9kbits/s speed=1.24x    frame=16188 fps= 74 q=16.0 size= 3307776kB time=00:04:29.50 bitrate=100545.6kbits/s speed=1.24x    frame=16223 fps= 74 q=17.0 size= 3313152kB time=00:04:30.08 bitrate=100491.3kbits/s speed=1.23x    frame=16262 fps= 74 q=16.0 size= 3319552kB time=00:04:30.73 bitrate=100443.4kbits/s speed=1.23x    frame=16305 fps= 74 q=16.0 size= 3326208kB time=00:04:31.45 bitrate=100378.9kbits/s speed=1.23x    frame=16345 fps= 74 q=15.0 size= 3332352kB time=00:04:32.12 bitrate=100317.6kbits/s speed=1.24x    frame=16392 fps= 74 q=16.0 size= 3340288kB time=00:04:32.90 bitrate=100267.6kbits/s speed=1.24x    frame=16437 fps= 74 q=15.0 size= 3347200kB time=00:04:33.65 bitrate=100199.5kbits/s speed=1.24x    frame=16466 fps= 74 q=16.0 size= 3351808kB time=00:04:34.14 bitrate=100160.3kbits/s speed=1.24x    frame=16504 fps= 74 q=15.0 size= 3358464kB time=00:04:34.77 bitrate=100127.7kbits/s speed=1.24x    frame=16545 fps= 74 q=16.0 size= 3364352kB time=00:04:35.45 bitrate=100054.2kbits/s speed=1.24x    frame=16588 fps= 74 q=15.0 size= 3371008kB time=00:04:36.17 bitrate=99991.7kbits/s speed=1.24x    frame=16630 fps= 74 q=13.0 size= 3377408kB time=00:04:36.87 bitrate=99928.0kbits/s speed=1.24x    frame=16679 fps= 74 q=17.0 size= 3383808kB time=00:04:37.69 bitrate=99822.6kbits/s speed=1.24x    frame=16711 fps= 74 q=16.0 size= 3387904kB time=00:04:38.22 bitrate=99751.7kbits/s speed=1.24x    frame=16753 fps= 74 q=15.0 size= 3393024kB time=00:04:38.92 bitrate=99651.5kbits/s speed=1.24x    frame=16796 fps= 74 q=15.0 size= 3397376kB time=00:04:39.64 bitrate=99523.3kbits/s speed=1.24x    frame=16837 fps= 74 q=14.0 size= 3402240kB time=00:04:40.33 bitrate=99422.6kbits/s speed=1.24x    frame=16875 fps= 74 q=21.0 size= 3408640kB time=00:04:40.96 bitrate=99384.9kbits/s speed=1.24x    frame=16909 fps= 74 q=21.0 size= 3421440kB time=00:04:41.53 bitrate=99557.1kbits/s speed=1.24x    frame=16935 fps= 74 q=20.0 size= 3434240kB time=00:04:41.96 bitrate=99775.8kbits/s speed=1.24x    frame=16963 fps= 74 q=21.0 size= 3446016kB time=00:04:42.43 bitrate=99952.4kbits/s speed=1.24x    frame=17002 fps= 74 q=22.0 size= 3461376kB time=00:04:43.08 bitrate=100167.1kbits/s speed=1.24x    frame=17040 fps= 74 q=22.0 size= 3476992kB time=00:04:43.71 bitrate=100394.2kbits/s speed=1.24x    frame=17064 fps= 74 q=22.0 size= 3486464kB time=00:04:44.11 bitrate=100525.8kbits/s speed=1.24x    frame=17106 fps= 74 q=22.0 size= 3503104kB time=00:04:44.81 bitrate=100757.1kbits/s speed=1.24x    frame=17141 fps= 74 q=22.0 size= 3515904kB time=00:04:45.40 bitrate=100918.4kbits/s speed=1.24x    frame=17173 fps= 74 q=23.0 size= 3527936kB time=00:04:45.93 bitrate=101074.7kbits/s speed=1.24x    frame=17197 fps= 74 q=23.0 size= 3538432kB time=00:04:46.33 bitrate=101233.6kbits/s speed=1.23x    frame=17231 fps= 74 q=23.0 size= 3551488kB time=00:04:46.90 bitrate=101406.3kbits/s speed=1.23x    frame=17265 fps= 74 q=23.0 size= 3565056kB time=00:04:47.47 bitrate=101592.8kbits/s speed=1.23x    frame=17298 fps= 74 q=23.0 size= 3578880kB time=00:04:48.02 bitrate=101791.8kbits/s speed=1.23x    frame=17331 fps= 74 q=23.0 size= 3592448kB time=00:04:48.57 bitrate=101982.8kbits/s speed=1.23x    frame=17372 fps= 74 q=23.0 size= 3608064kB time=00:04:49.25 bitrate=102183.9kbits/s speed=1.23x    frame=17404 fps= 74 q=26.0 size= 3620096kB time=00:04:49.78 bitrate=102335.7kbits/s speed=1.23x    frame=17429 fps= 74 q=21.0 size= 3629312kB time=00:04:50.20 bitrate=102448.8kbits/s speed=1.23x    frame=17470 fps= 74 q=20.0 size= 3642368kB time=00:04:50.89 bitrate=102575.6kbits/s speed=1.23x    frame=17512 fps= 74 q=22.0 size= 3650304kB time=00:04:51.59 bitrate=102552.1kbits/s speed=1.23x    frame=17552 fps= 74 q=21.0 size= 3658752kB time=00:04:52.25 bitrate=102554.7kbits/s speed=1.23x    frame=17591 fps= 74 q=21.0 size= 3668480kB time=00:04:52.90 bitrate=102598.9kbits/s speed=1.23x    frame=17634 fps= 74 q=21.0 size= 3678464kB time=00:04:53.62 bitrate=102626.8kbits/s speed=1.23x    frame=17666 fps= 74 q=21.0 size= 3685376kB time=00:04:54.16 bitrate=102633.1kbits/s speed=1.23x    frame=17708 fps= 74 q=22.0 size= 3695104kB time=00:04:54.86 bitrate=102659.4kbits/s speed=1.23x    frame=17744 fps= 74 q=22.0 size= 3702272kB time=00:04:55.46 bitrate=102649.5kbits/s speed=1.23x    frame=17774 fps= 74 q=21.0 size= 3710208kB time=00:04:55.96 bitrate=102695.6kbits/s speed=1.23x    frame=17804 fps= 74 q=21.0 size= 3716096kB time=00:04:56.46 bitrate=102684.9kbits/s speed=1.23x    frame=17839 fps= 74 q=20.0 size= 3722496kB time=00:04:57.04 bitrate=102659.5kbits/s speed=1.23x    frame=17877 fps= 74 q=20.0 size= 3728384kB time=00:04:57.68 bitrate=102602.9kbits/s speed=1.23x    frame=17913 fps= 74 q=20.0 size= 3732992kB time=00:04:58.28 bitrate=102522.9kbits/s speed=1.23x    frame=17956 fps= 74 q=20.0 size= 3739648kB time=00:04:58.99 bitrate=102459.3kbits/s speed=1.23x    frame=17991 fps= 74 q=20.0 size= 3744256kB time=00:04:59.58 bitrate=102385.6kbits/s speed=1.23x    frame=18025 fps= 74 q=22.0 size= 3748864kB time=00:05:00.14 bitrate=102317.9kbits/s speed=1.23x    frame=18061 fps= 74 q=22.0 size= 3758080kB time=00:05:00.75 bitrate=102364.6kbits/s speed=1.23x    frame=18101 fps= 74 q=22.0 size= 3768832kB time=00:05:01.41 bitrate=102430.1kbits/s speed=1.23x    frame=18133 fps= 74 q=22.0 size= 3777792kB time=00:05:01.95 bitrate=102492.1kbits/s speed=1.23x    frame=18162 fps= 74 q=21.0 size= 3785984kB time=00:05:02.43 bitrate=102550.1kbits/s speed=1.23x    frame=18198 fps= 74 q=22.0 size= 3793664kB time=00:05:03.03 bitrate=102554.4kbits/s speed=1.23x    frame=18237 fps= 74 q=20.0 size= 3799552kB time=00:05:03.68 bitrate=102493.5kbits/s speed=1.23x    frame=18272 fps= 74 q=20.0 size= 3804928kB time=00:05:04.27 bitrate=102441.6kbits/s speed=1.23x    frame=18307 fps= 74 q=24.0 size= 3811328kB time=00:05:04.85 bitrate=102417.4kbits/s speed=1.23x    frame=18342 fps= 74 q=24.0 size= 3820800kB time=00:05:05.43 bitrate=102475.6kbits/s speed=1.23x    frame=18381 fps= 74 q=24.0 size= 3835904kB time=00:05:06.08 bitrate=102662.0kbits/s speed=1.23x    frame=18410 fps= 74 q=24.0 size= 3847680kB time=00:05:06.57 bitrate=102814.7kbits/s speed=1.23x    frame=18449 fps= 74 q=24.0 size= 3862528kB time=00:05:07.22 bitrate=102992.8kbits/s speed=1.23x    frame=18485 fps= 74 q=26.0 size= 3875840kB time=00:05:07.82 bitrate=103146.1kbits/s speed=1.23x    frame=18507 fps= 74 q=24.0 size= 3883776kB time=00:05:08.19 bitrate=103234.3kbits/s speed=1.23x    frame=18541 fps= 74 q=24.0 size= 3896320kB time=00:05:08.75 bitrate=103377.4kbits/s speed=1.23x    frame=18579 fps= 74 q=24.0 size= 3909632kB time=00:05:09.39 bitrate=103518.1kbits/s speed=1.23x    frame=18615 fps= 74 q=24.0 size= 3921664kB time=00:05:09.99 bitrate=103635.5kbits/s speed=1.23x    frame=18650 fps= 74 q=24.0 size= 3933952kB time=00:05:10.57 bitrate=103764.7kbits/s speed=1.23x    frame=18685 fps= 74 q=25.0 size= 3945472kB time=00:05:11.16 bitrate=103873.3kbits/s speed=1.23x    frame=18721 fps= 74 q=25.0 size= 3957248kB time=00:05:11.76 bitrate=103982.6kbits/s speed=1.23x    frame=18749 fps= 74 q=25.0 size= 3966464kB time=00:05:12.22 bitrate=104068.9kbits/s speed=1.23x    frame=18787 fps= 74 q=25.0 size= 3979264kB time=00:05:12.86 bitrate=104193.1kbits/s speed=1.23x    frame=18808 fps= 74 q=-1.0 Lsize= 3996523kB time=00:05:13.76 bitrate=104344.6kbits/s speed=1.23x    
video:3996412kB audio:0kB subtitle:0kB other streams:0kB global headers:0kB muxing overhead: 0.002784%
[libx264 @ 0x5648301ec2c0] frame I:157   Avg QP:14.90  size:1149028
[libx264 @ 0x5648301ec2c0] frame P:18651 Avg QP:17.90  size:209744
[libx264 @ 0x5648301ec2c0] mb I  I16..4: 100.0%  0.0%  0.0%
[libx264 @ 0x5648301ec2c0] mb P  I16..4:  5.3%  0.0%  0.0%  P16..4: 58.1%  0.0%  0.0%  0.0%  0.0%    skip:36.7%
[libx264 @ 0x5648301ec2c0] final ratefactor: 17.23
[libx264 @ 0x5648301ec2c0] coded y,uvDC,uvAC intra: 26.7% 52.5% 25.0% inter: 27.3% 34.7% 8.3%
[libx264 @ 0x5648301ec2c0] i16 v,h,dc,p: 35% 28% 13% 24%
[libx264 @ 0x5648301ec2c0] i8c dc,h,v,p: 40% 25% 19% 16%
[libx264 @ 0x5648301ec2c0] kb/s:104336.12
